<?xml version="1.0" standalone="no"?>
<!DOCTYPE svg PUBLIC "-//W3C//DTD SVG 20010904//EN"
 "http://www.w3.org/TR/2001/REC-SVG-20010904/DTD/svg10.dtd">
<svg version="1.0" xmlns="http://www.w3.org/2000/svg"
 width="505.000000pt" height="220.000000pt" viewBox="0 0 505.000000 220.000000"
 preserveAspectRatio="xMidYMid meet">
<metadata>
Created by potrace 1.16, written by Peter Selinger 2001-2019
</metadata>
<g transform="translate(0.000000,220.000000) scale(0.100000,-0.100000)"
fill="#000000" stroke="none">
<path d="M872 1334 c-49 -34 -79 -124 -122 -368 -36 -199 -57 -298 -76 -343
-16 -39 -8 -41 54 -13 42 19 42 19 42 72 0 128 64 450 109 553 25 56 47 67 73
35 18 -23 19 -39 16 -242 l-3 -218 35 0 35 0 -3 211 c-2 117 -1 222 2 235 8
31 42 41 66 19 43 -39 91 -255 111 -494 6 -75 13 -142 15 -149 4 -14 71 -48
79 -40 3 3 -1 34 -10 69 -8 35 -29 152 -46 259 -34 219 -52 297 -80 352 -39
77 -85 96 -145 59 -29 -18 -31 -18 -53 0 -28 23 -69 24 -99 3z"/>
<path d="M2816 1333 c-16 -3 -46 -23 -70 -47 -55 -55 -81 -141 -74 -246 8
-108 45 -173 184 -320 63 -68 124 -141 135 -162 11 -21 23 -38 28 -38 4 0 13
18 20 41 15 49 25 34 -134 193 -149 150 -179 202 -179 316 0 81 15 122 62 173
43 46 112 27 112 -31 0 -29 14 -28 39 4 21 27 19 46 -8 78 -14 16 -75 49 -83
45 -2 -1 -16 -4 -32 -6z"/>
<path d="M2291 1301 c-19 -27 -21 -43 -21 -205 0 -196 6 -224 59 -269 38 -32
57 -34 71 -8 15 30 12 40 -15 47 -45 11 -55 38 -55 156 0 102 1 108 20 108 12
0 34 -7 50 -15 l30 -16 0 40 c0 42 -13 51 -72 51 -28 0 -28 1 -28 64 0 36 -4
67 -9 71 -5 3 -19 -8 -30 -24z"/>
<path d="M4190 1303 c-29 -26 -32 -33 -22 -46 15 -17 12 -394 -2 -434 -8 -22
-6 -23 39 -23 45 0 47 1 39 23 -4 12 -10 132 -14 267 l-5 244 -35 -31z"/>
<path d="M4340 1303 c-29 -26 -32 -33 -22 -46 15 -17 12 -394 -2 -434 -8 -22
-6 -23 39 -23 45 0 47 1 39 23 -4 12 -10 132 -14 267 l-5 244 -35 -31z"/>
<path d="M1387 1180 c-41 -13 -58 -29 -80 -80 -25 -56 -28 -171 -5 -215 49
-93 156 -107 233 -29 39 39 44 63 17 87 -25 23 -28 22 -42 -13 -7 -17 -22 -37
-34 -45 -29 -21 -80 -19 -100 4 -17 19 -14 22 89 91 115 77 117 81 76 139 -39
55 -98 79 -154 61z m71 -66 c12 -8 26 -24 32 -34 9 -17 1 -26 -65 -70 -42 -28
-80 -48 -86 -44 -13 7 -5 69 13 109 11 25 50 54 73 55 6 0 21 -7 33 -16z"/>
<path d="M1605 995 l0 -195 35 0 35 0 -4 165 -3 165 41 0 c23 0 57 -7 76 -14
l35 -15 0 38 c0 48 -6 51 -123 51 l-92 0 0 -195z"/>
<path d="M1847 1183 c-4 -3 -2 -12 4 -19 12 -15 8 -319 -5 -346 -7 -16 -2 -18
39 -18 45 0 47 1 39 23 -4 12 -9 86 -11 165 l-4 142 46 0 c25 0 61 -7 80 -14
l35 -15 0 34 c0 24 -6 38 -19 45 -21 11 -194 14 -204 3z"/>
<path d="M3070 1172 c-45 -25 -73 -82 -78 -158 -7 -103 33 -181 103 -204 30
-10 41 -9 73 7 111 54 117 287 9 353 -40 25 -63 25 -107 2z m100 -67 c20 -21
25 -39 28 -93 4 -92 -18 -136 -70 -140 -33 -3 -40 1 -58 30 -31 48 -25 166 9
202 31 33 61 33 91 1z"/>
<path d="M3287 1183 c-4 -3 -2 -12 4 -19 12 -15 8 -319 -5 -346 -7 -16 -2 -18
39 -18 45 0 47 1 39 23 -4 12 -9 86 -11 165 l-4 142 48 0 c26 0 61 -7 77 -15
37 -20 36 -20 36 20 0 24 -6 37 -19 45 -21 11 -194 14 -204 3z"/>
<path d="M3538 1184 c-4 -4 -3 -13 3 -20 8 -9 10 -70 7 -189 l-3 -175 38 0
c36 0 39 2 31 23 -4 12 -9 86 -11 165 l-4 142 40 0 c31 0 49 -7 73 -29 29 -26
33 -35 32 -78 0 -29 -18 -99 -44 -176 -42 -121 -43 -130 -29 -155 24 -43 43
-34 50 23 4 28 21 86 39 130 45 110 52 215 18 264 -41 60 -71 76 -156 79 -42
2 -80 0 -84 -4z"/>
<path d="M3927 1180 c-41 -13 -58 -29 -80 -80 -25 -56 -28 -171 -5 -215 49
-93 156 -107 233 -29 40 40 44 63 14 90 -17 16 -22 16 -29 4 -6 -8 -10 -20
-10 -27 0 -21 -52 -53 -85 -53 -19 0 -39 8 -49 19 -17 19 -14 22 89 91 115 77
117 81 76 139 -39 55 -98 79 -154 61z m82 -76 c17 -14 31 -30 31 -35 0 -4 -34
-32 -76 -60 -84 -56 -100 -54 -89 9 9 52 26 82 54 97 36 20 45 19 80 -11z"/>
<path d="M2132 1150 c6 -18 9 -94 7 -190 l-4 -160 38 0 c39 0 39 0 30 33 -11
42 -10 284 1 320 8 27 8 27 -37 27 l-46 0 11 -30z"/>
</g>
</svg>
