<?xml version="1.0" encoding="utf-8"?>
<!-- Generator: Adobe Illustrator 16.0.0, SVG Export Plug-In . SVG Version: 6.00 Build 0)  -->
<!DOCTYPE svg PUBLIC "-//W3C//DTD SVG 1.1//EN" "http://www.w3.org/Graphics/SVG/1.1/DTD/svg11.dtd">
<svg version="1.1" id="Layer_1" xmlns="http://www.w3.org/2000/svg" xmlns:xlink="http://www.w3.org/1999/xlink" x="0px" y="0px"
	 width="220" height="56" viewBox="0 0 700 180" enable-background="new 0 0 700 180" xml:space="preserve">
<circle fill="#2AACE3" cx="13.487" cy="46.602" r="10.65"/>
<circle fill="#B3D236" cx="13.487" cy="77.163" r="10.65"/>
<circle fill="#002E3F" cx="13.487" cy="107.338" r="10.65"/>
<g>
	<path fill="#002E3F" d="M125.126,38.497c0.997,1.033,1.496,2.368,1.496,4.006v65.591c0,1.64-0.446,2.921-1.335,3.846
		c-0.891,0.925-2.12,1.389-3.686,1.389c-1.496,0-2.67-0.464-3.525-1.389c-0.855-0.925-1.282-2.206-1.282-3.846V58.419L95.856,98.266
		c-1.354,2.494-3.098,3.739-5.234,3.739c-2.136,0-3.882-1.245-5.234-3.739L64.342,58.847v49.247c0,1.64-0.427,2.921-1.282,3.846
		s-2.066,1.389-3.632,1.389c-1.496,0-2.689-0.48-3.579-1.442c-0.891-0.961-1.335-2.225-1.335-3.792V42.502
		c0-1.638,0.497-2.973,1.496-4.006c0.996-1.032,2.278-1.549,3.846-1.549c2.207,0,3.987,1.282,5.341,3.846l25.531,48.82l25.318-48.82
		c1.352-2.563,3.098-3.846,5.234-3.846C122.847,36.947,124.128,37.465,125.126,38.497z"/>
	<path fill="#002E3F" d="M186.229,100.83c0.642,0.784,0.962,1.78,0.962,2.991c0,2.066-1.282,3.811-3.846,5.234
		c-2.494,1.425-5.218,2.528-8.173,3.312c-2.956,0.782-5.787,1.175-8.492,1.175c-8.263,0-14.779-2.403-19.549-7.211
		c-4.772-4.807-7.157-11.377-7.157-19.709c0-5.341,1.05-10.077,3.151-14.208c2.1-4.129,5.056-7.334,8.866-9.614
		c3.809-2.278,8.136-3.418,12.979-3.418c6.979,0,12.499,2.244,16.558,6.73c4.06,4.487,6.089,10.541,6.089,18.161
		c0,2.849-1.281,4.273-3.846,4.273h-33.009c0.711,11.041,6.018,16.558,15.917,16.558c2.634,0,4.914-0.355,6.837-1.068
		c1.923-0.711,3.952-1.637,6.089-2.777c0.214-0.142,0.801-0.444,1.763-0.908c0.961-0.462,1.763-0.694,2.403-0.694
		C184.77,99.654,185.589,100.047,186.229,100.83z M155.25,71.239c-2.494,2.635-3.989,6.339-4.487,11.11h27.561
		c-0.213-4.842-1.441-8.563-3.686-11.164c-2.243-2.599-5.395-3.899-9.454-3.899C161.054,67.286,157.742,68.604,155.25,71.239z"/>
	<path fill="#002E3F" d="M231.95,63.975c0,1.567-0.393,2.742-1.175,3.525c-0.785,0.785-2.137,1.247-4.06,1.389l-3.205,0.32
		c-4.486,0.427-7.816,1.995-9.988,4.7c-2.173,2.708-3.258,5.982-3.258,9.828V108.2c0,1.71-0.499,2.991-1.496,3.847
		c-0.998,0.854-2.28,1.281-3.846,1.281c-1.567,0-2.867-0.427-3.899-1.281c-1.033-0.855-1.549-2.137-1.549-3.847V64.722
		c0-1.637,0.516-2.901,1.549-3.792c1.032-0.89,2.332-1.335,3.899-1.335c1.424,0,2.617,0.445,3.579,1.335
		c0.961,0.892,1.441,2.12,1.441,3.686v5.128c1.424-3.133,3.489-5.519,6.196-7.157c2.706-1.638,5.769-2.599,9.188-2.885l1.495-0.106
		C230.241,59.381,231.95,60.841,231.95,63.975z"/>
	<path fill="#002E3F" d="M271.049,63.975c0,1.567-0.393,2.742-1.175,3.525c-0.785,0.785-2.137,1.247-4.06,1.389l-3.205,0.32
		c-4.486,0.427-7.816,1.995-9.988,4.7c-2.173,2.708-3.258,5.982-3.258,9.828V108.2c0,1.71-0.499,2.991-1.496,3.847
		c-0.998,0.854-2.28,1.281-3.846,1.281c-1.567,0-2.867-0.427-3.899-1.281c-1.033-0.855-1.549-2.137-1.549-3.847V64.722
		c0-1.637,0.516-2.901,1.549-3.792c1.032-0.89,2.332-1.335,3.899-1.335c1.424,0,2.617,0.445,3.579,1.335
		c0.961,0.892,1.441,2.12,1.441,3.686v5.128c1.424-3.133,3.489-5.519,6.196-7.157c2.706-1.638,5.769-2.599,9.188-2.885l1.495-0.106
		C269.34,59.381,271.049,60.841,271.049,63.975z"/>
	<path fill="#002E3F" d="M278.205,47.417c-1.212-1.139-1.815-2.634-1.815-4.487c0-1.851,0.604-3.328,1.815-4.433
		c1.21-1.104,2.848-1.656,4.914-1.656c1.993,0,3.614,0.552,4.86,1.656c1.245,1.105,1.87,2.582,1.87,4.433
		c0,1.853-0.606,3.348-1.816,4.487c-1.212,1.14-2.85,1.709-4.914,1.709C281.053,49.125,279.415,48.557,278.205,47.417z
		 M279.22,112.047c-1.033-0.855-1.549-2.137-1.549-3.847V64.829c0-1.709,0.516-3.008,1.549-3.899
		c1.032-0.89,2.332-1.335,3.899-1.335c1.565,0,2.848,0.445,3.846,1.335c0.997,0.892,1.496,2.19,1.496,3.899V108.2
		c0,1.71-0.499,2.991-1.496,3.847c-0.998,0.854-2.28,1.281-3.846,1.281C281.552,113.328,280.252,112.901,279.22,112.047z"/>
	<path fill="#002E3F" d="M333.913,106.331c0.676,0.678,1.015,1.621,1.015,2.831c0,1.426-0.552,2.511-1.655,3.258
		c-1.105,0.748-2.725,1.05-4.86,0.908l-2.885-0.214c-5.769-0.427-10.078-2.189-12.926-5.287c-2.85-3.099-4.273-7.674-4.273-13.728
		V68.995h-6.409c-3.135,0-4.7-1.389-4.7-4.166c0-1.282,0.409-2.297,1.229-3.044c0.817-0.748,1.977-1.122,3.472-1.122h6.409V49.66
		c0-1.637,0.481-2.919,1.442-3.846c0.962-0.925,2.26-1.389,3.899-1.389c1.638,0,2.954,0.464,3.952,1.389
		c0.997,0.926,1.496,2.208,1.496,3.846v11.003h10.575c1.496,0,2.652,0.374,3.473,1.122c0.817,0.748,1.228,1.763,1.228,3.044
		c0,1.354-0.41,2.387-1.228,3.098c-0.82,0.712-1.977,1.068-3.473,1.068h-10.575v25.853c0,3.348,0.694,5.805,2.083,7.371
		c1.389,1.567,3.507,2.457,6.356,2.67l2.99,0.214C332.114,105.246,333.235,105.655,333.913,106.331z"/>
	<path fill="#002E3F" d="M386.203,109.002c-5.341-3.098-9.438-7.548-12.285-13.354c-2.849-5.804-4.272-12.659-4.272-20.564
		c0-7.833,1.424-14.652,4.272-20.458c2.848-5.803,6.944-10.255,12.285-13.353c5.342-3.098,11.607-4.647,18.802-4.647
		c4.7,0,9.15,0.731,13.353,2.19c4.201,1.46,7.869,3.579,11.004,6.356c1.352,1.068,2.029,2.494,2.029,4.273
		c0,1.282-0.357,2.368-1.068,3.258c-0.713,0.892-1.567,1.335-2.563,1.335c-1.212,0-2.387-0.462-3.525-1.389
		c-3.419-2.564-6.535-4.361-9.348-5.395c-2.814-1.032-6-1.549-9.561-1.549c-7.835,0-13.853,2.529-18.054,7.585
		c-4.203,5.058-6.303,12.322-6.303,21.792c0,9.544,2.1,16.843,6.303,21.9c4.201,5.057,10.219,7.584,18.054,7.584
		c3.418,0,6.533-0.534,9.347-1.603c2.813-1.068,5.999-2.848,9.562-5.341c1.424-0.925,2.599-1.389,3.525-1.389
		c0.996,0,1.851,0.445,2.563,1.335c0.711,0.892,1.068,1.977,1.068,3.259c0,1.78-0.678,3.204-2.029,4.272
		c-3.135,2.777-6.803,4.897-11.004,6.356c-4.202,1.459-8.652,2.189-13.353,2.189C397.811,113.648,391.545,112.1,386.203,109.002z"/>
	<path fill="#002E3F" d="M451.313,110.23c-3.883-2.207-6.873-5.358-8.974-9.454c-2.102-4.095-3.151-8.849-3.151-14.262
		c0-5.483,1.05-10.272,3.151-14.368c2.101-4.094,5.091-7.246,8.974-9.454c3.881-2.207,8.386-3.312,13.514-3.312
		s9.631,1.105,13.514,3.312c3.881,2.208,6.872,5.36,8.973,9.454c2.101,4.096,3.151,8.885,3.151,14.368
		c0,5.413-1.051,10.167-3.151,14.262c-2.101,4.096-5.092,7.247-8.973,9.454c-3.883,2.208-8.386,3.312-13.514,3.312
		S455.193,112.438,451.313,110.23z M475.775,100.296c2.527-3.134,3.793-7.727,3.793-13.781c0-5.982-1.282-10.557-3.846-13.727
		c-2.564-3.168-6.196-4.754-10.896-4.754s-8.332,1.586-10.896,4.754c-2.563,3.17-3.846,7.745-3.846,13.727
		c0,6.055,1.264,10.647,3.792,13.781c2.527,3.135,6.178,4.7,10.95,4.7C469.597,104.996,473.247,103.431,475.775,100.296z"/>
	<path fill="#002E3F" d="M534.904,63.975c0,1.567-0.393,2.742-1.175,3.525c-0.785,0.785-2.137,1.247-4.06,1.389l-3.205,0.32
		c-4.486,0.427-7.816,1.995-9.988,4.7c-2.173,2.708-3.258,5.982-3.258,9.828V108.2c0,1.71-0.499,2.991-1.496,3.847
		c-0.998,0.854-2.28,1.281-3.846,1.281c-1.567,0-2.867-0.427-3.899-1.281c-1.033-0.855-1.549-2.137-1.549-3.847V64.722
		c0-1.637,0.516-2.901,1.549-3.792c1.032-0.89,2.332-1.335,3.899-1.335c1.424,0,2.617,0.445,3.579,1.335
		c0.961,0.892,1.441,2.12,1.441,3.686v5.128c1.424-3.133,3.489-5.519,6.196-7.157c2.706-1.638,5.769-2.599,9.188-2.885l1.495-0.106
		C533.195,59.381,534.904,60.841,534.904,63.975z"/>
	<path fill="#002E3F" d="M588.316,80.426V108.2c0,1.64-0.48,2.903-1.442,3.793c-0.961,0.89-2.297,1.335-4.006,1.335
		c-1.639,0-2.938-0.464-3.899-1.389c-0.961-0.925-1.441-2.172-1.441-3.739V80.96c0-4.415-0.873-7.655-2.617-9.721
		c-1.746-2.065-4.471-3.098-8.173-3.098c-4.345,0-7.835,1.354-10.469,4.06c-2.636,2.707-3.952,6.339-3.952,10.896V108.2
		c0,1.567-0.481,2.814-1.442,3.739c-0.962,0.925-2.262,1.389-3.899,1.389c-1.639,0-2.956-0.464-3.952-1.389
		c-0.998-0.925-1.496-2.172-1.496-3.739V64.722c0-1.496,0.516-2.724,1.549-3.686c1.032-0.961,2.332-1.442,3.899-1.442
		c1.565,0,2.813,0.464,3.739,1.389c0.925,0.926,1.389,2.136,1.389,3.632v4.38c1.709-3.133,4.095-5.518,7.157-7.157
		c3.062-1.637,6.517-2.457,10.362-2.457C582.084,59.381,588.316,66.396,588.316,80.426z"/>
	<path fill="#002E3F" d="M646.321,100.83c0.642,0.784,0.962,1.78,0.962,2.991c0,2.066-1.282,3.811-3.846,5.234
		c-2.494,1.425-5.218,2.528-8.173,3.312c-2.956,0.782-5.787,1.175-8.492,1.175c-8.263,0-14.779-2.403-19.55-7.211
		c-4.771-4.807-7.157-11.377-7.157-19.709c0-5.341,1.05-10.077,3.151-14.208c2.101-4.129,5.057-7.334,8.867-9.614
		c3.809-2.278,8.135-3.418,12.979-3.418c6.979,0,12.498,2.244,16.558,6.73c4.06,4.487,6.089,10.541,6.089,18.161
		c0,2.849-1.281,4.273-3.846,4.273h-33.009c0.711,11.041,6.017,16.558,15.917,16.558c2.634,0,4.914-0.355,6.837-1.068
		c1.923-0.711,3.952-1.637,6.089-2.777c0.214-0.142,0.801-0.444,1.763-0.908c0.961-0.462,1.763-0.694,2.403-0.694
		C644.861,99.654,645.681,100.047,646.321,100.83z M615.342,71.239c-2.493,2.635-3.989,6.339-4.486,11.11h27.561
		c-0.213-4.842-1.441-8.563-3.686-11.164c-2.243-2.599-5.395-3.899-9.454-3.899C621.146,67.286,617.834,68.604,615.342,71.239z"/>
	<path fill="#002E3F" d="M661.116,112.047c-1.033-0.855-1.549-2.137-1.549-3.847V42.182c0-1.709,0.516-3.008,1.549-3.899
		c1.032-0.89,2.332-1.335,3.899-1.335c1.565,0,2.848,0.446,3.846,1.335c0.997,0.892,1.496,2.19,1.496,3.899V108.2
		c0,1.71-0.499,2.991-1.496,3.847c-0.998,0.854-2.28,1.281-3.846,1.281C663.448,113.328,662.148,112.901,661.116,112.047z"/>
	<path fill="#002E3F" d="M686.967,112.047c-1.033-0.855-1.549-2.137-1.549-3.847V42.182c0-1.709,0.516-3.008,1.549-3.899
		c1.032-0.89,2.332-1.335,3.899-1.335c1.565,0,2.848,0.446,3.846,1.335c0.997,0.892,1.496,2.19,1.496,3.899V108.2
		c0,1.71-0.499,2.991-1.496,3.847c-0.998,0.854-2.28,1.281-3.846,1.281C689.299,113.328,687.999,112.901,686.967,112.047z"/>
</g>
<g>
	<path d="M392.799,135.556c0.141-0.091,0.295-0.136,0.463-0.136c0.223,0,0.416,0.066,0.577,0.199s0.241,0.312,0.241,0.535
		c0,0.099-0.021,0.21-0.063,0.336l-4.746,13.377c-0.07,0.196-0.189,0.347-0.357,0.452c-0.168,0.104-0.357,0.157-0.566,0.157
		c-0.197,0-0.379-0.053-0.547-0.157c-0.168-0.105-0.287-0.256-0.356-0.452l-4.116-11.634l-4.158,11.634
		c-0.07,0.196-0.188,0.347-0.356,0.452c-0.168,0.104-0.351,0.157-0.546,0.157c-0.196,0-0.379-0.053-0.547-0.157
		c-0.168-0.105-0.287-0.256-0.356-0.452l-4.767-13.377c-0.043-0.111-0.063-0.217-0.063-0.314c0-0.224,0.087-0.406,0.263-0.546
		c0.175-0.14,0.375-0.21,0.599-0.21c0.168,0,0.325,0.045,0.472,0.136c0.147,0.092,0.249,0.229,0.305,0.41l4.137,11.928l4.201-11.802
		c0.069-0.21,0.182-0.368,0.336-0.473c0.153-0.105,0.321-0.157,0.504-0.157c0.182,0,0.35,0.056,0.504,0.168s0.266,0.272,0.336,0.482
		l4.137,11.823l4.18-11.97C392.561,135.784,392.659,135.647,392.799,135.556z"/>
	<path d="M404.539,148.167c0.111,0.126,0.168,0.287,0.168,0.482c0,0.351-0.246,0.672-0.735,0.966
		c-0.505,0.294-1.036,0.515-1.597,0.662c-0.56,0.146-1.105,0.221-1.638,0.221c-1.582,0-2.831-0.47-3.749-1.407
		c-0.916-0.938-1.375-2.233-1.375-3.885c0-1.051,0.203-1.978,0.609-2.783c0.406-0.805,0.977-1.431,1.711-1.879
		c0.735-0.448,1.572-0.672,2.51-0.672c1.33,0,2.387,0.434,3.171,1.302s1.177,2.044,1.177,3.527c0,0.28-0.057,0.483-0.168,0.609
		c-0.113,0.126-0.295,0.189-0.547,0.189h-6.762c0.126,2.407,1.268,3.611,3.423,3.611c0.546,0,1.015-0.073,1.407-0.221
		c0.392-0.146,0.812-0.346,1.26-0.598c0.364-0.21,0.609-0.315,0.735-0.315C404.293,147.978,404.426,148.041,404.539,148.167z
		 M398.313,142.034c-0.539,0.561-0.858,1.352-0.956,2.373h5.942c-0.027-1.035-0.287-1.83-0.776-2.383
		c-0.49-0.553-1.176-0.83-2.058-0.83C399.568,141.194,398.851,141.475,398.313,142.034z"/>
	<path d="M416.203,150.267c-0.58-0.154-1.096-0.371-1.543-0.651c-0.252-0.168-0.431-0.325-0.535-0.472
		c-0.105-0.147-0.158-0.326-0.158-0.536c0-0.182,0.053-0.332,0.158-0.451c0.104-0.119,0.241-0.179,0.409-0.179
		s0.413,0.105,0.735,0.315c0.42,0.252,0.836,0.451,1.249,0.598c0.413,0.147,0.927,0.221,1.544,0.221
		c0.756,0,1.344-0.133,1.764-0.398s0.63-0.651,0.63-1.155c0-0.308-0.077-0.557-0.231-0.745c-0.154-0.189-0.42-0.357-0.798-0.505
		c-0.378-0.146-0.931-0.297-1.659-0.451c-1.232-0.266-2.113-0.623-2.646-1.071c-0.532-0.447-0.798-1.057-0.798-1.826
		c0-0.603,0.168-1.135,0.504-1.597s0.801-0.825,1.396-1.092c0.595-0.266,1.271-0.398,2.026-0.398c0.546,0,1.074,0.073,1.585,0.22
		c0.512,0.147,0.963,0.354,1.355,0.62c0.476,0.336,0.713,0.686,0.713,1.05c0,0.182-0.056,0.336-0.168,0.462
		c-0.111,0.126-0.244,0.188-0.398,0.188c-0.168,0-0.42-0.118-0.756-0.356c-0.393-0.252-0.764-0.448-1.113-0.588
		s-0.784-0.21-1.302-0.21c-0.658,0-1.187,0.146-1.585,0.44c-0.399,0.294-0.6,0.687-0.6,1.177c0,0.308,0.074,0.556,0.221,0.745
		c0.147,0.189,0.393,0.357,0.735,0.504c0.343,0.147,0.837,0.291,1.48,0.431c0.952,0.21,1.69,0.44,2.216,0.693
		c0.525,0.252,0.898,0.56,1.123,0.924s0.336,0.826,0.336,1.386c0,0.882-0.371,1.593-1.113,2.132s-1.722,0.809-2.939,0.809
		C417.396,150.498,416.784,150.421,416.203,150.267z"/>
	<path d="M434.012,140.145c0.146,0.154,0.221,0.357,0.221,0.609v8.883c0,0.238-0.074,0.434-0.221,0.588
		c-0.147,0.154-0.354,0.231-0.619,0.231c-0.253,0-0.452-0.074-0.6-0.221c-0.146-0.147-0.221-0.34-0.221-0.578v-1.05
		c-0.322,0.616-0.773,1.085-1.354,1.407c-0.582,0.322-1.236,0.483-1.964,0.483c-1.218,0-2.136-0.34-2.751-1.019
		c-0.616-0.68-0.924-1.684-0.924-3.014v-5.712c0-0.252,0.076-0.455,0.23-0.609s0.364-0.23,0.631-0.23
		c0.266,0,0.473,0.076,0.619,0.23s0.221,0.357,0.221,0.609v5.67c0,0.91,0.182,1.578,0.545,2.005
		c0.365,0.428,0.938,0.641,1.723,0.641c0.896,0,1.617-0.29,2.163-0.871s0.819-1.348,0.819-2.3v-5.145
		c0-0.252,0.076-0.455,0.23-0.609s0.364-0.23,0.631-0.23C433.658,139.914,433.864,139.99,434.012,140.145z"/>
	<path d="M445.865,140.544c0.687,0.448,1.219,1.074,1.597,1.879c0.378,0.806,0.567,1.74,0.567,2.804
		c0,1.064-0.189,1.992-0.567,2.782c-0.378,0.791-0.907,1.404-1.585,1.838c-0.68,0.434-1.475,0.651-2.384,0.651
		c-0.798,0-1.495-0.176-2.09-0.525s-1.046-0.847-1.354-1.491v4.936c0,0.252-0.073,0.451-0.221,0.598
		c-0.146,0.147-0.354,0.221-0.619,0.221s-0.477-0.077-0.63-0.23c-0.154-0.154-0.231-0.351-0.231-0.588v-12.663
		c0-0.252,0.077-0.455,0.231-0.609c0.153-0.154,0.364-0.23,0.63-0.23s0.473,0.076,0.619,0.23c0.147,0.154,0.221,0.357,0.221,0.609
		v1.134c0.309-0.644,0.76-1.141,1.354-1.491c0.595-0.35,1.292-0.524,2.09-0.524C444.389,139.872,445.18,140.096,445.865,140.544z
		 M445.467,148.083c0.547-0.673,0.819-1.624,0.819-2.856c0-1.231-0.272-2.194-0.819-2.888c-0.546-0.692-1.316-1.039-2.311-1.039
		s-1.76,0.336-2.299,1.008s-0.809,1.631-0.809,2.877s0.27,2.209,0.809,2.888s1.305,1.019,2.299,1.019
		S444.921,148.755,445.467,148.083z"/>
	<path d="M459.032,140.544c0.687,0.448,1.218,1.074,1.597,1.879c0.377,0.806,0.566,1.74,0.566,2.804
		c0,1.064-0.189,1.992-0.566,2.782c-0.379,0.791-0.907,1.404-1.586,1.838c-0.68,0.434-1.474,0.651-2.383,0.651
		c-0.799,0-1.495-0.176-2.09-0.525c-0.596-0.35-1.047-0.847-1.355-1.491v4.936c0,0.252-0.072,0.451-0.22,0.598
		c-0.147,0.147-0.354,0.221-0.62,0.221s-0.476-0.077-0.629-0.23c-0.154-0.154-0.231-0.351-0.231-0.588v-12.663
		c0-0.252,0.077-0.455,0.231-0.609c0.153-0.154,0.363-0.23,0.629-0.23s0.473,0.076,0.62,0.23s0.22,0.357,0.22,0.609v1.134
		c0.309-0.644,0.76-1.141,1.355-1.491c0.595-0.35,1.291-0.524,2.09-0.524C457.555,139.872,458.346,140.096,459.032,140.544z
		 M458.633,148.083c0.547-0.673,0.82-1.624,0.82-2.856c0-1.231-0.273-2.194-0.82-2.888c-0.545-0.692-1.315-1.039-2.31-1.039
		s-1.761,0.336-2.3,1.008s-0.809,1.631-0.809,2.877s0.27,2.209,0.809,2.888s1.306,1.019,2.3,1.019S458.088,148.755,458.633,148.083z
		"/>
	<path d="M464.922,150.235c-0.16-0.147-0.24-0.354-0.24-0.62V136.28c0-0.266,0.08-0.473,0.24-0.619
		c0.161-0.147,0.368-0.221,0.62-0.221c0.237,0,0.438,0.073,0.599,0.221c0.16,0.146,0.241,0.354,0.241,0.619v13.335
		c0,0.267-0.081,0.473-0.241,0.62c-0.161,0.146-0.361,0.221-0.599,0.221C465.29,150.456,465.083,150.382,464.922,150.235z"/>
	<path d="M478.604,139.935c0.211,0,0.399,0.07,0.567,0.21c0.168,0.141,0.252,0.315,0.252,0.525c0,0.126-0.028,0.238-0.084,0.336
		l-5.901,12.726c-0.07,0.154-0.172,0.273-0.305,0.357s-0.27,0.126-0.409,0.126c-0.21,0-0.396-0.066-0.556-0.2
		c-0.162-0.133-0.242-0.304-0.242-0.514c0-0.112,0.027-0.225,0.084-0.336l1.471-3.172l-4.158-8.987
		c-0.057-0.098-0.084-0.203-0.084-0.315c0-0.21,0.094-0.392,0.283-0.546s0.395-0.23,0.619-0.23c0.141,0,0.276,0.042,0.41,0.126
		c0.133,0.084,0.234,0.203,0.305,0.356l3.506,7.875l3.508-7.833C478.023,140.103,478.268,139.935,478.604,139.935z"/>
	<path d="M496.706,139.935c0.21,0,0.399,0.07,0.567,0.21c0.168,0.141,0.252,0.315,0.252,0.525c0,0.126-0.029,0.238-0.084,0.336
		l-5.901,12.726c-0.07,0.154-0.172,0.273-0.305,0.357c-0.134,0.084-0.27,0.126-0.409,0.126c-0.211,0-0.396-0.066-0.557-0.2
		c-0.161-0.133-0.242-0.304-0.242-0.514c0-0.112,0.028-0.225,0.084-0.336l1.471-3.172l-4.158-8.987
		c-0.057-0.098-0.084-0.203-0.084-0.315c0-0.21,0.095-0.392,0.283-0.546c0.189-0.154,0.396-0.23,0.619-0.23
		c0.141,0,0.277,0.042,0.41,0.126s0.234,0.203,0.305,0.356l3.507,7.875l3.507-7.833C496.125,140.103,496.37,139.935,496.706,139.935
		z"/>
	<path d="M501.903,149.847c-0.735-0.434-1.302-1.054-1.701-1.858s-0.599-1.739-0.599-2.804c0-1.063,0.199-1.998,0.599-2.804
		c0.399-0.805,0.966-1.424,1.701-1.858c0.735-0.434,1.585-0.65,2.552-0.65c0.966,0,1.819,0.217,2.562,0.65
		c0.742,0.435,1.313,1.054,1.712,1.858c0.398,0.806,0.598,1.74,0.598,2.804c0,1.064-0.199,1.999-0.598,2.804
		c-0.399,0.805-0.97,1.425-1.712,1.858s-1.596,0.651-2.562,0.651C503.488,150.498,502.639,150.28,501.903,149.847z M506.775,148.093
		c0.539-0.664,0.809-1.634,0.809-2.908c0-1.246-0.273-2.208-0.819-2.888c-0.546-0.679-1.315-1.019-2.31-1.019
		s-1.764,0.34-2.311,1.019c-0.546,0.68-0.818,1.642-0.818,2.888c0,1.26,0.27,2.226,0.809,2.898c0.538,0.672,1.313,1.008,2.32,1.008
		S506.236,148.758,506.775,148.093z"/>
	<path d="M521.201,140.145c0.147,0.154,0.221,0.357,0.221,0.609v8.883c0,0.238-0.073,0.434-0.221,0.588
		c-0.146,0.154-0.354,0.231-0.619,0.231c-0.252,0-0.451-0.074-0.598-0.221c-0.147-0.147-0.221-0.34-0.221-0.578v-1.05
		c-0.322,0.616-0.773,1.085-1.355,1.407c-0.58,0.322-1.235,0.483-1.963,0.483c-1.218,0-2.135-0.34-2.751-1.019
		c-0.616-0.68-0.924-1.684-0.924-3.014v-5.712c0-0.252,0.077-0.455,0.231-0.609c0.153-0.154,0.363-0.23,0.629-0.23
		s0.473,0.076,0.62,0.23s0.22,0.357,0.22,0.609v5.67c0,0.91,0.183,1.578,0.547,2.005c0.363,0.428,0.938,0.641,1.722,0.641
		c0.896,0,1.617-0.29,2.163-0.871s0.818-1.348,0.818-2.3v-5.145c0-0.252,0.077-0.455,0.231-0.609c0.153-0.154,0.364-0.23,0.63-0.23
		S521.055,139.99,521.201,140.145z"/>
	<path d="M531.481,140.628c0,0.224-0.063,0.402-0.188,0.535c-0.127,0.133-0.344,0.214-0.651,0.241l-0.63,0.063
		c-0.938,0.084-1.635,0.417-2.09,0.997c-0.455,0.581-0.683,1.264-0.683,2.048v5.103c0,0.28-0.077,0.49-0.231,0.63
		c-0.154,0.141-0.356,0.211-0.608,0.211s-0.459-0.074-0.62-0.221c-0.16-0.147-0.24-0.354-0.24-0.62v-8.861
		c0-0.266,0.084-0.473,0.252-0.62c0.168-0.146,0.37-0.22,0.608-0.22c0.224,0,0.413,0.073,0.567,0.22
		c0.153,0.147,0.23,0.347,0.23,0.599v1.176c0.294-0.615,0.711-1.084,1.25-1.406s1.158-0.512,1.857-0.567l0.295-0.021
		C531.188,139.872,531.481,140.109,531.481,140.628z"/>
	<path d="M547.777,140.522c0.686,0.435,1.218,1.05,1.596,1.848c0.378,0.799,0.566,1.723,0.566,2.772
		c0,1.064-0.188,1.999-0.566,2.804s-0.91,1.432-1.596,1.879c-0.687,0.448-1.478,0.673-2.373,0.673c-0.799,0-1.494-0.176-2.09-0.525
		s-1.047-0.847-1.354-1.491v1.134c0,0.252-0.073,0.455-0.22,0.609c-0.147,0.154-0.354,0.231-0.62,0.231
		c-0.267,0-0.476-0.077-0.63-0.231s-0.23-0.357-0.23-0.609V136.26c0-0.238,0.076-0.434,0.23-0.588s0.363-0.231,0.63-0.231
		c0.266,0,0.473,0.073,0.62,0.221c0.146,0.146,0.22,0.347,0.22,0.599v5.628c0.308-0.644,0.759-1.141,1.354-1.491
		c0.596-0.35,1.291-0.524,2.09-0.524C546.3,139.872,547.091,140.089,547.777,140.522z M547.378,148.051
		c0.546-0.692,0.819-1.662,0.819-2.908c0-1.218-0.273-2.163-0.819-2.835s-1.315-1.008-2.31-1.008s-1.762,0.336-2.3,1.008
		c-0.539,0.672-0.809,1.631-0.809,2.877s0.27,2.209,0.809,2.888c0.538,0.679,1.306,1.019,2.3,1.019S546.832,148.744,547.378,148.051
		z"/>
	<path d="M561.814,140.145c0.147,0.154,0.221,0.357,0.221,0.609v8.883c0,0.238-0.073,0.434-0.221,0.588
		c-0.146,0.154-0.354,0.231-0.619,0.231c-0.252,0-0.451-0.074-0.598-0.221c-0.147-0.147-0.221-0.34-0.221-0.578v-1.05
		c-0.322,0.616-0.773,1.085-1.355,1.407c-0.58,0.322-1.235,0.483-1.963,0.483c-1.218,0-2.135-0.34-2.751-1.019
		c-0.616-0.68-0.924-1.684-0.924-3.014v-5.712c0-0.252,0.077-0.455,0.231-0.609c0.153-0.154,0.363-0.23,0.629-0.23
		s0.473,0.076,0.62,0.23s0.22,0.357,0.22,0.609v5.67c0,0.91,0.183,1.578,0.547,2.005c0.363,0.428,0.938,0.641,1.722,0.641
		c0.896,0,1.617-0.29,2.163-0.871s0.818-1.348,0.818-2.3v-5.145c0-0.252,0.077-0.455,0.231-0.609c0.153-0.154,0.364-0.23,0.63-0.23
		S561.668,139.99,561.814,140.145z"/>
	<path d="M567.758,150.267c-0.58-0.154-1.096-0.371-1.543-0.651c-0.252-0.168-0.431-0.325-0.535-0.472
		c-0.105-0.147-0.158-0.326-0.158-0.536c0-0.182,0.053-0.332,0.158-0.451c0.104-0.119,0.241-0.179,0.409-0.179
		s0.413,0.105,0.735,0.315c0.42,0.252,0.836,0.451,1.249,0.598c0.413,0.147,0.927,0.221,1.544,0.221
		c0.756,0,1.344-0.133,1.764-0.398s0.63-0.651,0.63-1.155c0-0.308-0.077-0.557-0.231-0.745c-0.154-0.189-0.42-0.357-0.798-0.505
		c-0.378-0.146-0.931-0.297-1.659-0.451c-1.232-0.266-2.113-0.623-2.646-1.071c-0.532-0.447-0.798-1.057-0.798-1.826
		c0-0.603,0.168-1.135,0.504-1.597s0.801-0.825,1.396-1.092c0.595-0.266,1.271-0.398,2.026-0.398c0.546,0,1.074,0.073,1.585,0.22
		c0.512,0.147,0.963,0.354,1.355,0.62c0.476,0.336,0.713,0.686,0.713,1.05c0,0.182-0.056,0.336-0.168,0.462
		c-0.111,0.126-0.244,0.188-0.398,0.188c-0.168,0-0.42-0.118-0.756-0.356c-0.393-0.252-0.764-0.448-1.113-0.588
		s-0.784-0.21-1.302-0.21c-0.658,0-1.187,0.146-1.585,0.44c-0.399,0.294-0.6,0.687-0.6,1.177c0,0.308,0.074,0.556,0.221,0.745
		c0.147,0.189,0.393,0.357,0.735,0.504c0.343,0.147,0.837,0.291,1.48,0.431c0.952,0.21,1.69,0.44,2.216,0.693
		c0.525,0.252,0.898,0.56,1.123,0.924s0.336,0.826,0.336,1.386c0,0.882-0.371,1.593-1.113,2.132s-1.722,0.809-2.939,0.809
		C568.951,150.498,568.339,150.421,567.758,150.267z"/>
	<path d="M577.219,137.415c-0.21-0.196-0.315-0.455-0.315-0.777c0-0.308,0.105-0.56,0.315-0.756s0.482-0.294,0.818-0.294
		s0.609,0.098,0.819,0.294s0.315,0.448,0.315,0.756c0,0.322-0.105,0.581-0.315,0.777c-0.21,0.195-0.483,0.294-0.819,0.294
		S577.429,137.61,577.219,137.415z M577.418,150.235c-0.161-0.147-0.241-0.354-0.241-0.62v-8.861c0-0.266,0.08-0.473,0.241-0.62
		c0.16-0.146,0.367-0.22,0.619-0.22s0.455,0.073,0.609,0.22c0.154,0.147,0.23,0.354,0.23,0.62v8.861c0,0.28-0.076,0.49-0.23,0.63
		c-0.154,0.141-0.357,0.211-0.609,0.211S577.578,150.382,577.418,150.235z"/>
	<path d="M591.813,143.925v5.69c0,0.267-0.073,0.473-0.221,0.62c-0.147,0.146-0.354,0.221-0.619,0.221
		c-0.267,0-0.476-0.074-0.63-0.221c-0.154-0.147-0.231-0.354-0.231-0.62v-5.586c0-0.951-0.186-1.645-0.556-2.079
		c-0.371-0.434-0.963-0.65-1.775-0.65c-0.938,0-1.688,0.287-2.246,0.86c-0.561,0.574-0.841,1.352-0.841,2.331v5.124
		c0,0.267-0.073,0.473-0.22,0.62c-0.147,0.146-0.354,0.221-0.62,0.221c-0.267,0-0.476-0.074-0.63-0.221
		c-0.154-0.147-0.23-0.354-0.23-0.62v-8.861c0-0.252,0.076-0.455,0.23-0.609s0.363-0.23,0.63-0.23c0.252,0,0.452,0.076,0.599,0.23
		s0.221,0.351,0.221,0.588v1.071c0.336-0.63,0.805-1.109,1.406-1.438s1.288-0.493,2.059-0.493
		C590.588,139.872,591.813,141.223,591.813,143.925z"/>
	<path d="M604.182,148.167c0.112,0.126,0.168,0.287,0.168,0.482c0,0.351-0.244,0.672-0.734,0.966
		c-0.504,0.294-1.037,0.515-1.596,0.662c-0.561,0.146-1.106,0.221-1.639,0.221c-1.582,0-2.832-0.47-3.748-1.407
		c-0.918-0.938-1.376-2.233-1.376-3.885c0-1.051,0.203-1.978,0.609-2.783c0.405-0.805,0.976-1.431,1.712-1.879
		c0.734-0.448,1.57-0.672,2.509-0.672c1.33,0,2.387,0.434,3.171,1.302s1.176,2.044,1.176,3.527c0,0.28-0.056,0.483-0.168,0.609
		c-0.111,0.126-0.293,0.189-0.545,0.189h-6.763c0.126,2.407,1.267,3.611,3.423,3.611c0.547,0,1.016-0.073,1.407-0.221
		c0.392-0.146,0.812-0.346,1.26-0.598c0.364-0.21,0.609-0.315,0.735-0.315C603.938,147.978,604.07,148.041,604.182,148.167z
		 M597.955,142.034c-0.539,0.561-0.857,1.352-0.955,2.373h5.943c-0.028-1.035-0.287-1.83-0.777-2.383s-1.176-0.83-2.059-0.83
		C599.212,141.194,598.494,141.475,597.955,142.034z"/>
	<path d="M609.484,150.267c-0.58-0.154-1.096-0.371-1.543-0.651c-0.252-0.168-0.431-0.325-0.535-0.472
		c-0.105-0.147-0.158-0.326-0.158-0.536c0-0.182,0.053-0.332,0.158-0.451c0.104-0.119,0.241-0.179,0.409-0.179
		s0.413,0.105,0.735,0.315c0.42,0.252,0.836,0.451,1.249,0.598c0.413,0.147,0.927,0.221,1.544,0.221
		c0.756,0,1.344-0.133,1.764-0.398s0.629-0.651,0.629-1.155c0-0.308-0.076-0.557-0.23-0.745c-0.154-0.189-0.42-0.357-0.797-0.505
		c-0.379-0.146-0.932-0.297-1.66-0.451c-1.232-0.266-2.113-0.623-2.646-1.071c-0.532-0.447-0.798-1.057-0.798-1.826
		c0-0.603,0.168-1.135,0.504-1.597s0.801-0.825,1.396-1.092c0.595-0.266,1.271-0.398,2.025-0.398c0.547,0,1.076,0.073,1.586,0.22
		c0.512,0.147,0.963,0.354,1.355,0.62c0.475,0.336,0.713,0.686,0.713,1.05c0,0.182-0.055,0.336-0.168,0.462
		c-0.111,0.126-0.244,0.188-0.398,0.188c-0.168,0-0.42-0.118-0.756-0.356c-0.393-0.252-0.764-0.448-1.113-0.588
		s-0.783-0.21-1.303-0.21c-0.657,0-1.186,0.146-1.584,0.44c-0.399,0.294-0.6,0.687-0.6,1.177c0,0.308,0.074,0.556,0.221,0.745
		c0.147,0.189,0.393,0.357,0.735,0.504c0.343,0.147,0.837,0.291,1.481,0.431c0.951,0.21,1.689,0.44,2.215,0.693
		c0.525,0.252,0.898,0.56,1.123,0.924s0.336,0.826,0.336,1.386c0,0.882-0.371,1.593-1.113,2.132s-1.721,0.809-2.939,0.809
		C610.678,150.498,610.065,150.421,609.484,150.267z"/>
	<path d="M620.51,150.267c-0.582-0.154-1.096-0.371-1.545-0.651c-0.252-0.168-0.43-0.325-0.535-0.472
		c-0.105-0.147-0.156-0.326-0.156-0.536c0-0.182,0.051-0.332,0.156-0.451s0.242-0.179,0.41-0.179s0.412,0.105,0.734,0.315
		c0.42,0.252,0.836,0.451,1.25,0.598c0.412,0.147,0.928,0.221,1.543,0.221c0.756,0,1.344-0.133,1.764-0.398s0.631-0.651,0.631-1.155
		c0-0.308-0.078-0.557-0.23-0.745c-0.154-0.189-0.42-0.357-0.799-0.505c-0.377-0.146-0.932-0.297-1.658-0.451
		c-1.232-0.266-2.115-0.623-2.646-1.071c-0.533-0.447-0.799-1.057-0.799-1.826c0-0.603,0.168-1.135,0.504-1.597
		s0.803-0.825,1.396-1.092c0.596-0.266,1.271-0.398,2.027-0.398c0.547,0,1.074,0.073,1.586,0.22c0.51,0.147,0.963,0.354,1.354,0.62
		c0.477,0.336,0.715,0.686,0.715,1.05c0,0.182-0.057,0.336-0.168,0.462c-0.113,0.126-0.246,0.188-0.398,0.188
		c-0.168,0-0.42-0.118-0.758-0.356c-0.391-0.252-0.762-0.448-1.111-0.588c-0.352-0.14-0.785-0.21-1.303-0.21
		c-0.658,0-1.186,0.146-1.586,0.44c-0.398,0.294-0.598,0.687-0.598,1.177c0,0.308,0.072,0.556,0.221,0.745
		c0.146,0.189,0.391,0.357,0.734,0.504c0.344,0.147,0.836,0.291,1.48,0.431c0.951,0.21,1.691,0.44,2.215,0.693
		c0.525,0.252,0.9,0.56,1.125,0.924c0.223,0.364,0.336,0.826,0.336,1.386c0,0.882-0.371,1.593-1.113,2.132s-1.723,0.809-2.941,0.809
		C621.703,150.498,621.09,150.421,620.51,150.267z"/>
	<path d="M645.109,143.925v5.69c0,0.267-0.072,0.473-0.219,0.62c-0.148,0.146-0.355,0.221-0.621,0.221s-0.475-0.074-0.629-0.221
		c-0.154-0.147-0.23-0.354-0.23-0.62v-5.586c0-0.951-0.188-1.645-0.557-2.079c-0.371-0.434-0.963-0.65-1.775-0.65
		c-0.938,0-1.688,0.287-2.246,0.86c-0.561,0.574-0.84,1.352-0.84,2.331v5.124c0,0.267-0.074,0.473-0.221,0.62
		c-0.148,0.146-0.354,0.221-0.621,0.221c-0.266,0-0.475-0.074-0.629-0.221c-0.154-0.147-0.23-0.354-0.23-0.62v-8.861
		c0-0.252,0.076-0.455,0.23-0.609s0.363-0.23,0.629-0.23c0.254,0,0.453,0.076,0.6,0.23s0.221,0.351,0.221,0.588v1.071
		c0.336-0.63,0.805-1.109,1.406-1.438s1.289-0.493,2.059-0.493C643.885,139.872,645.109,141.223,645.109,143.925z"/>
	<path d="M657.479,148.167c0.113,0.126,0.168,0.287,0.168,0.482c0,0.351-0.244,0.672-0.734,0.966
		c-0.504,0.294-1.035,0.515-1.596,0.662c-0.561,0.146-1.105,0.221-1.639,0.221c-1.582,0-2.832-0.47-3.748-1.407
		c-0.916-0.938-1.375-2.233-1.375-3.885c0-1.051,0.203-1.978,0.609-2.783c0.404-0.805,0.977-1.431,1.711-1.879
		s1.57-0.672,2.51-0.672c1.33,0,2.387,0.434,3.17,1.302c0.785,0.868,1.176,2.044,1.176,3.527c0,0.28-0.055,0.483-0.168,0.609
		c-0.111,0.126-0.293,0.189-0.545,0.189h-6.762c0.125,2.407,1.266,3.611,3.422,3.611c0.547,0,1.016-0.073,1.408-0.221
		c0.391-0.146,0.811-0.346,1.26-0.598c0.363-0.21,0.609-0.315,0.734-0.315C657.234,147.978,657.367,148.041,657.479,148.167z
		 M651.252,142.034c-0.539,0.561-0.857,1.352-0.955,2.373h5.943c-0.027-1.035-0.287-1.83-0.777-2.383s-1.176-0.83-2.057-0.83
		C652.51,141.194,651.791,141.475,651.252,142.034z"/>
	<path d="M669.49,148.167c0.113,0.126,0.168,0.287,0.168,0.482c0,0.351-0.244,0.672-0.734,0.966
		c-0.504,0.294-1.035,0.515-1.596,0.662c-0.561,0.146-1.105,0.221-1.639,0.221c-1.582,0-2.832-0.47-3.748-1.407
		c-0.916-0.938-1.375-2.233-1.375-3.885c0-1.051,0.203-1.978,0.609-2.783c0.404-0.805,0.977-1.431,1.711-1.879
		s1.57-0.672,2.51-0.672c1.33,0,2.387,0.434,3.17,1.302c0.785,0.868,1.176,2.044,1.176,3.527c0,0.28-0.055,0.483-0.168,0.609
		c-0.111,0.126-0.293,0.189-0.545,0.189h-6.762c0.125,2.407,1.266,3.611,3.422,3.611c0.547,0,1.016-0.073,1.408-0.221
		c0.391-0.146,0.811-0.346,1.26-0.598c0.363-0.21,0.609-0.315,0.734-0.315C669.246,147.978,669.379,148.041,669.49,148.167z
		 M663.264,142.034c-0.539,0.561-0.857,1.352-0.955,2.373h5.943c-0.027-1.035-0.287-1.83-0.777-2.383s-1.176-0.83-2.057-0.83
		C664.521,141.194,663.803,141.475,663.264,142.034z"/>
	<path d="M682.029,135.672c0.154,0.154,0.23,0.35,0.23,0.588v13.355c0,0.252-0.076,0.455-0.23,0.609s-0.365,0.231-0.631,0.231
		s-0.473-0.077-0.619-0.231s-0.221-0.357-0.221-0.609v-1.134c-0.309,0.645-0.76,1.142-1.354,1.491
		c-0.596,0.35-1.293,0.525-2.09,0.525c-0.896,0-1.688-0.225-2.373-0.673c-0.686-0.447-1.219-1.074-1.596-1.879
		c-0.379-0.805-0.568-1.739-0.568-2.804c0-1.05,0.189-1.974,0.568-2.772c0.377-0.798,0.91-1.413,1.596-1.848
		c0.686-0.434,1.477-0.65,2.373-0.65c0.797,0,1.494,0.175,2.09,0.524c0.594,0.351,1.045,0.848,1.354,1.491v-5.628
		c0-0.252,0.074-0.452,0.221-0.599c0.146-0.147,0.354-0.221,0.619-0.221S681.875,135.518,682.029,135.672z M679.75,148.072
		c0.539-0.679,0.809-1.642,0.809-2.888s-0.27-2.205-0.809-2.877s-1.305-1.008-2.299-1.008s-1.768,0.336-2.32,1.008
		c-0.555,0.672-0.83,1.617-0.83,2.835c0,1.246,0.275,2.216,0.83,2.908c0.553,0.693,1.326,1.04,2.32,1.04
		S679.211,148.751,679.75,148.072z"/>
	<path d="M687.961,150.267c-0.582-0.154-1.096-0.371-1.545-0.651c-0.252-0.168-0.43-0.325-0.535-0.472
		c-0.105-0.147-0.156-0.326-0.156-0.536c0-0.182,0.051-0.332,0.156-0.451s0.242-0.179,0.41-0.179s0.412,0.105,0.734,0.315
		c0.42,0.252,0.836,0.451,1.25,0.598c0.412,0.147,0.928,0.221,1.543,0.221c0.756,0,1.344-0.133,1.764-0.398s0.631-0.651,0.631-1.155
		c0-0.308-0.078-0.557-0.23-0.745c-0.154-0.189-0.42-0.357-0.799-0.505c-0.377-0.146-0.932-0.297-1.658-0.451
		c-1.232-0.266-2.115-0.623-2.646-1.071c-0.533-0.447-0.799-1.057-0.799-1.826c0-0.603,0.168-1.135,0.504-1.597
		s0.803-0.825,1.396-1.092c0.596-0.266,1.271-0.398,2.027-0.398c0.547,0,1.074,0.073,1.586,0.22c0.51,0.147,0.963,0.354,1.354,0.62
		c0.477,0.336,0.715,0.686,0.715,1.05c0,0.182-0.057,0.336-0.168,0.462c-0.113,0.126-0.246,0.188-0.398,0.188
		c-0.168,0-0.42-0.118-0.758-0.356c-0.391-0.252-0.762-0.448-1.111-0.588c-0.352-0.14-0.785-0.21-1.303-0.21
		c-0.658,0-1.186,0.146-1.586,0.44c-0.398,0.294-0.598,0.687-0.598,1.177c0,0.308,0.072,0.556,0.221,0.745
		c0.146,0.189,0.391,0.357,0.734,0.504c0.344,0.147,0.836,0.291,1.48,0.431c0.951,0.21,1.691,0.44,2.215,0.693
		c0.525,0.252,0.9,0.56,1.125,0.924c0.223,0.364,0.336,0.826,0.336,1.386c0,0.882-0.371,1.593-1.113,2.132s-1.723,0.809-2.941,0.809
		C689.154,150.498,688.541,150.421,687.961,150.267z"/>
</g>
<g>
</g>
<g>
</g>
<g>
</g>
<g>
</g>
<g>
</g>
<g>
</g>
</svg>
